# xmcd CD database file
#
# Track frame offsets:
#	150
#	16925
#	39300
#	56552
#	74547
#	92527
#	108787
#	127690
#	145400
#	164712
#	180075
#
# Disc length: 2772 seconds
#
# Revision: 1
# Processed by: cddbd v1.5.2PL0 Copyright (c) Steve Scherf et al.
# Submitted via: CDex 1.51
#
DISCID=860ad20b
DTITLE=Hands On The Wheel - Promised Land
DYEAR=1996
DGENRE=Rock
TTITLE0=Promised Land
TTITLE1=Live Is A River
TTITLE2=Caught In The Eye Of The Storm
TTITLE3=Toytown
TTITLE4=Board To The Sun
TTITLE5=Road Kill Cafe
TTITLE6=Across A Fadin Trace
TTITLE7=The Wave Of Change
TTITLE8=Never Get Enough Of You
TTITLE9=Damned If You Don't
TTITLE10=Get Where You're Going
EXTD=YEAR: 1996
EXTT0=
EXTT1=
EXTT2=
EXTT3=
EXTT4=
EXTT5=
EXTT6=
EXTT7=
EXTT8=
EXTT9=
EXTT10=
PLAYORDER=
